<?xml version="1.0" encoding="UTF-8"?>
<svg width="16px" height="16px" viewBox="0 0 16 16" version="1.1" xmlns="http://www.w3.org/2000/svg" xmlns:xlink="http://www.w3.org/1999/xlink">
    <!-- Generator: Sketch 53.2 (72643) - https://sketchapp.com -->
    <title>全部模版</title>
    <desc>Created with Sketch.</desc>
    <g id="Page-1" stroke="none" stroke-width="1" fill="none" fill-rule="evenodd">
        <g id="分组-19">
            <g id="分组-10" fill="#FF733C">
                <rect id="矩形" x="0" y="0" width="16" height="16" rx="3"></rect>
            </g>
            <g id="分组" fill="#000000" fill-rule="nonzero" opacity="0">
                <rect id="矩形" x="0" y="0" width="16" height="16"></rect>
            </g>
            <g id="模板管理" transform="translate(2.666667, 2.666667)" fill-rule="nonzero">
                <g id="分组">
                    <rect id="矩形" fill="#000000" opacity="0" x="0" y="0" width="10.6666667" height="10.6666667"></rect>
                    <path d="M1.12625,6.36541667 L4.84208333,6.36541667 C5.09568401,6.36535923 5.30128586,6.15985062 5.30145833,5.90625 L5.30145833,1.38427083 C5.30145833,1.1305075 5.0957425,0.924791667 4.84197917,0.924791667 L1.12625,0.924791667 C1.0043705,0.924764036 0.887473415,0.973161111 0.801281825,1.05933316 C0.715090236,1.14550522 0.666666664,1.26239133 0.666666667,1.38427083 L0.666666667,5.90625 C0.666839194,6.15993197 0.872567979,6.36547424 1.12625,6.36541667 Z M1.2640625,1.74260417 C1.2640625,1.62081387 1.36279304,1.52208333 1.48458333,1.52208333 L4.48375,1.52208333 C4.60554029,1.52208333 4.70427083,1.62081387 4.70427083,1.74260417 L4.70427083,5.54770833 C4.70427083,5.66949863 4.60554029,5.76822917 4.48375,5.76822917 L1.48458333,5.76822917 C1.36279304,5.76822917 1.2640625,5.66949863 1.2640625,5.54770833 L1.2640625,1.74260417 Z M7.05895833,6.36541667 L9.538125,6.36541667 C9.79234857,6.36541667 9.9984375,6.15932774 9.9984375,5.90510417 L9.9984375,4.74385417 C9.9984375,4.48963059 9.79234857,4.28354167 9.538125,4.28354167 L7.05895833,4.28354167 C6.80473476,4.28354167 6.59864583,4.48963059 6.59864583,4.74385417 L6.59864583,5.90510417 C6.59864583,6.15932774 6.80473476,6.36541667 7.05895833,6.36541667 L7.05895833,6.36541667 Z M7.19583333,5.10125 C7.19580556,5.04270155 7.21907294,4.98654769 7.26050225,4.945177 C7.30193156,4.90380632 7.35811832,4.88061848 7.41666667,4.88072917 L9.18125,4.88072917 C9.30298276,4.88072917 9.40166667,4.97941307 9.40166667,5.10114583 L9.40166667,5.54770833 C9.40166667,5.6694411 9.30298276,5.768125 9.18125,5.768125 L7.41666667,5.768125 C7.2949339,5.768125 7.19625,5.6694411 7.19625,5.54770833 L7.19583333,5.10125 Z M7.05895833,2.99104167 L9.538125,2.99104167 C9.79234857,2.99104167 9.9984375,2.78495274 9.9984375,2.53072917 L9.9984375,1.36947917 C9.9984375,1.11525559 9.79234857,0.909166667 9.538125,0.909166667 L7.05895833,0.909166667 C6.80473476,0.909166667 6.59864583,1.11525559 6.59864583,1.36947917 L6.59864583,2.53072917 C6.59864583,2.78495274 6.80473476,2.99104167 7.05895833,2.99104167 L7.05895833,2.99104167 Z M7.19583333,1.72677083 C7.19583323,1.66824043 7.21911282,1.61211336 7.26053912,1.57076521 C7.30196543,1.52941707 7.35813637,1.50624352 7.41666667,1.50635417 L9.18125,1.50635417 C9.30298276,1.50635417 9.40166667,1.60503807 9.40166667,1.72677083 L9.40166667,2.17333333 C9.40166667,2.2950661 9.30298276,2.39375 9.18125,2.39375 L7.41666667,2.39375 C7.2949339,2.39375 7.19625,2.2950661 7.19625,2.17333333 L7.19583333,1.72677083 Z M9.53052083,7.65479167 L1.13822917,7.65479167 C1.0131726,7.65476404 0.893228561,7.7044232 0.804790442,7.79284178 C0.716352323,7.88126036 0.666666664,8.00119343 0.666666667,8.12625 L0.666666667,9.28125 C0.666666667,9.54162925 0.877745752,9.75270833 1.138125,9.75270833 L9.53052083,9.75270833 C9.65555936,9.75270833 9.77547663,9.70303697 9.86389222,9.61462138 C9.95230781,9.5262058 10.0019792,9.40628852 10.0019792,9.28125 L10.0019792,8.12625 C10.0019792,7.86587075 9.79090008,7.65479167 9.53052083,7.65479167 Z M9.4046875,8.9340625 C9.40468751,8.99270445 9.38138496,9.04894305 9.33990907,9.0903994 C9.29843318,9.13185575 9.24218361,9.1551318 9.18354167,9.15510417 L1.48510417,9.15510417 C1.42646223,9.1551318 1.37021265,9.13185575 1.32873676,9.0903994 C1.28726088,9.04894305 1.26395833,8.99270445 1.26395833,8.9340625 L1.26395833,8.473125 C1.26395833,8.41447348 1.28725756,8.35822417 1.32873045,8.31675128 C1.37020334,8.27527839 1.42645265,8.25197917 1.48510417,8.25197917 L9.18364583,8.25197917 C9.3057813,8.25197917 9.40479167,8.35098953 9.40479167,8.473125 L9.4046875,8.9340625 Z" id="形状" fill="#FFFFFF"></path>
                </g>
            </g>
        </g>
    </g>
</svg>