<?xml version="1.0" encoding="UTF-8"?>
<svg width="16px" height="16px" viewBox="0 0 16 16" version="1.1" xmlns="http://www.w3.org/2000/svg" xmlns:xlink="http://www.w3.org/1999/xlink">
    <!-- Generator: Sketch 53.2 (72643) - https://sketchapp.com -->
    <title>黄色蝴蝶 copy</title>
    <desc>Created with Sketch.</desc>
    <g id="Page-1" stroke="none" stroke-width="1" fill="none" fill-rule="evenodd">
        <g id="分组-3">
            <circle id="Oval-2" fill="#FFBF00" cx="8" cy="8" r="8"></circle>
            <g id="Group-3-Copy" transform="translate(4.333333, 4.000000)">
                <g id="分组-12">
                    <g id="Group-2" transform="translate(0.000000, 0.166667)" fill="#FFFFFF">
                        <path d="M2.10114826,3.14536724 C1.82460515,3.56219193 1.42769697,3.85338381 1.08010965,4.02404903 C1.08010965,4.02404903 1.35378023,5.52748053 1.38200074,5.65851793 C1.79700579,5.60235108 2.40263892,5.40307298 2.90432925,4.89068985 C3.1007406,4.22429392 2.85841537,3.48584772 2.10114826,3.14536724 Z" id="Path-6-Copy" opacity="0.699999988"></path>
                        <path d="M0.700542733,2.84327485 C0.700542733,2.84327485 0.0124969296,0.0115583358 0.0124969296,0.0115583358 C1.59025859,0.109941573 2.87855857,1.08730303 3.36360183,2.03431706 C3.84864509,2.98133109 3.64606843,4.15956919 2.87855857,4.91667955 C3.06776441,4.15436176 2.64936879,3.4928488 2.1590195,3.21279877 C1.66867021,2.93274874 1.22226646,2.83644688 0.700542733,2.84327485 Z" id="Path-5"></path>
                    </g>
                    <g id="Group-2" transform="translate(5.500000, 3.000000) scale(-1, 1) translate(-5.500000, -3.000000) translate(3.666667, 0.166667)" fill="#FFFFFF">
                        <path d="M2.10114826,3.14536724 C1.82460515,3.56219193 1.42769697,3.85338381 1.08010965,4.02404903 C1.08010965,4.02404903 1.35378023,5.52748053 1.38200074,5.65851793 C1.79700579,5.60235108 2.40263892,5.40307298 2.90432925,4.89068985 C3.1007406,4.22429392 2.85841537,3.48584772 2.10114826,3.14536724 Z" id="Path-6-Copy" opacity="0.699999988"></path>
                        <path d="M0.700542733,2.84327485 C0.700542733,2.84327485 0.0124969296,0.0115583358 0.0124969296,0.0115583358 C1.59025859,0.109941573 2.87855857,1.08730303 3.36360183,2.03431706 C3.84864509,2.98133109 3.64606843,4.15956919 2.87855857,4.91667955 C3.06776441,4.15436176 2.64936879,3.4928488 2.1590195,3.21279877 C1.66867021,2.93274874 1.22226646,2.83644688 0.700542733,2.84327485 Z" id="Path-5"></path>
                    </g>
                    <g id="Group-2" transform="translate(1.833333, 5.000000) scale(-1, 1) translate(-1.833333, -5.000000) translate(0.000000, 2.166667)">
                        <path d="M2.10114826,3.14536724 C1.82460515,3.56219193 1.42769697,3.85338381 1.08010965,4.02404903 C1.08010965,4.02404903 1.35378023,5.52748053 1.38200074,5.65851793 C1.79700579,5.60235108 2.40263892,5.40307298 2.90432925,4.89068985 C3.1007406,4.22429392 2.85841537,3.48584772 2.10114826,3.14536724 Z" id="Path-6-Copy" fill="#FFFFFF"></path>
                        <path d="M0.700542733,2.84327485 C0.700542733,2.84327485 0.0124969296,0.0115583358 0.0124969296,0.0115583358 C1.59025859,0.109941573 2.87855857,1.08730303 3.36360183,2.03431706 C3.84864509,2.98133109 3.64606843,4.15956919 2.87855857,4.91667955 C3.06776441,4.15436176 2.64936879,3.4928488 2.1590195,3.21279877 C1.66867021,2.93274874 1.22226646,2.83644688 0.700542733,2.84327485 Z" id="Path-5" fill="#FFEBB3"></path>
                    </g>
                    <g id="Group-2" transform="translate(3.666667, 2.166667)">
                        <path d="M2.10114826,3.14536724 C1.82460515,3.56219193 1.42769697,3.85338381 1.08010965,4.02404903 C1.08010965,4.02404903 1.35378023,5.52748053 1.38200074,5.65851793 C1.79700579,5.60235108 2.40263892,5.40307298 2.90432925,4.89068985 C3.1007406,4.22429392 2.85841537,3.48584772 2.10114826,3.14536724 Z" id="Path-6-Copy" fill="#FFFFFF"></path>
                        <path d="M0.700542733,2.84327485 C0.700542733,2.84327485 0.0124969296,0.0115583358 0.0124969296,0.0115583358 C1.59025859,0.109941573 2.87855857,1.08730303 3.36360183,2.03431706 C3.84864509,2.98133109 3.64606843,4.15956919 2.87855857,4.91667955 C3.06776441,4.15436176 2.64936879,3.4928488 2.1590195,3.21279877 C1.66867021,2.93274874 1.22226646,2.83644688 0.700542733,2.84327485 Z" id="Path-5" fill="#FFEBB3"></path>
                    </g>
                </g>
            </g>
        </g>
    </g>
</svg>