<?xml version="1.0" encoding="UTF-8"?>
<svg width="16px" height="16px" viewBox="0 0 16 16" version="1.1" xmlns="http://www.w3.org/2000/svg" xmlns:xlink="http://www.w3.org/1999/xlink">
    <!-- Generator: Sketch 53.2 (72643) - https://sketchapp.com -->
    <title>蓝色信封 copy</title>
    <desc>Created with Sketch.</desc>
    <g id="Page-1" stroke="none" stroke-width="1" fill="none" fill-rule="evenodd">
        <g id="分组-21-copy">
            <circle id="椭圆形" fill="#009DFF" cx="8" cy="8" r="8"></circle>
            <polygon id="路径" fill="#006AB9" fill-rule="nonzero" points="12.538511 6.92527574 8.00909926 10.1949449 3.4796875 6.92527574 8.00909926 3.65560662"></polygon>
            <polygon id="路径" fill="#E5ECFF" fill-rule="nonzero" points="4.7171875 4.22987132 11.301011 4.22987132 11.301011 12.2715993 4.7171875 12.2715993"></polygon>
            <polygon id="路径" fill="#FFFFFF" fill-rule="nonzero" points="6.21047794 5.06801471 9.80670956 5.06801471 9.80670956 5.81516544 6.21047794 5.81516544"></polygon>
            <path d="M5.43501838,6.44301471 L10.5841912,6.44301471 L10.5841912,6.81709559 L5.43501838,6.81709559 L5.43501838,6.44301471 Z M5.43501838,7.07693015 L10.5841912,7.07693015 L10.5841912,7.45101103 L5.43501838,7.45101103 L5.43501838,7.07693015 Z M5.43501838,7.71084559 L10.5841912,7.71084559 L10.5841912,8.08492647 L5.43501838,8.08492647 L5.43501838,7.71084559 Z M5.43501838,8.34476103 L10.5841912,8.34476103 L10.5841912,8.71884191 L5.43501838,8.71884191 L5.43501838,8.34476103 Z" id="形状" fill="#FFFFFF" fill-rule="nonzero"></path>
            <polygon id="路径" fill="#0187E1" fill-rule="nonzero" points="3.4796875 12.2715993 12.538511 12.2715993 12.538511 6.92527574 8.00909926 10.1949449 3.4796875 6.92527574"></polygon>
            <polygon id="路径" fill="#0075C9" fill-rule="nonzero" points="3.4796875 12.2715993 12.538511 12.2715993 8.83511029 9.5984375 7.18308824 9.5984375"></polygon>
        </g>
    </g>
</svg>