<?xml version="1.0" encoding="UTF-8"?>
<svg width="16px" height="16px" viewBox="0 0 16 16" version="1.1" xmlns="http://www.w3.org/2000/svg" xmlns:xlink="http://www.w3.org/1999/xlink">
    <!-- Generator: Sketch 53.2 (72643) - https://sketchapp.com -->
    <title>蓝色海豹替换</title>
    <desc>Created with Sketch.</desc>
    <g id="Page-1" stroke="none" stroke-width="1" fill="none" fill-rule="evenodd">
        <g id="分组-21">
            <circle id="椭圆形" fill="#4A90E2" cx="8" cy="8" r="8"></circle>
            <path d="M10.8589453,12.0109863 C10.960166,11.9213672 11.0391309,11.7737891 11.0391309,11.6336328 L11.0391309,6.87160156 C11.0391309,5.28024414 9.76392578,4.04525391 8.14470703,4.04525391 L7.89113281,4.04525391 C6.27442383,4.04525391 4.96584961,5.30693359 4.96584961,6.87160156 L4.96584961,11.5777832 C4.96644531,11.5797852 4.96678711,11.5820703 4.96678711,11.5844434 C4.96678711,11.5868164 4.96646484,11.5891211 4.96583008,11.5913086 L4.96584961,11.633457 C4.96584961,11.7531934 5.03713867,11.8879883 5.13210937,11.9812402 C5.20113281,12.0489258 5.28214844,12.0956445 5.35920898,12.0956445 L5.40610352,12.0956445 C5.57523437,12.0956445 5.67209961,11.8225879 5.67209961,11.633457 L5.67209961,11.210332 C5.67209961,10.6773926 6.18672852,10.4009375 6.67694336,10.4009375 L6.72404297,10.4009375 C7.265,10.4009375 7.64958008,10.7271777 7.64958008,11.210332 L7.64958008,11.633457 C7.64958008,11.8523535 7.82365234,12.0956445 7.99470703,12.0956445 L8.04180664,12.0956445 C8.21512695,12.0956445 8.35581055,11.8422559 8.35581055,11.633457 L8.35581055,11.210332 C8.35581055,10.7345996 8.75391602,10.4009375 9.31204102,10.4009375 L9.35914062,10.4009375 C9.86881836,10.4009375 10.1918066,10.7039062 10.1918066,11.2099707 L10.1918066,11.6336523 C10.1918066,11.8315625 10.4343262,12.0958398 10.6299805,12.0958398 L10.6770801,12.0958398 C10.735625,12.0958398 10.7954687,12.0664746 10.8498437,12.0209375 C10.8660352,11.9924902 10.857666,12.0032227 10.8589941,12.0110449 L10.8589453,12.0109863 Z" id="路径" fill="#FFFFFF"></path>
            <path d="M6.27861328,6.31543945 C6.73334961,6.31543945 7.10345703,6.6853418 7.10345703,7.1402832 C7.10345703,7.59522461 6.73334961,7.96512695 6.27861328,7.96512695 C5.82348633,7.96512695 5.45376953,7.59522461 5.45376953,7.1402832 C5.45376953,6.6853418 5.82366211,6.31543945 6.27861328,6.31543945 Z M6.27861328,7.68270508 L6.27868164,7.68272461 C6.57800781,7.6821875 6.82055664,7.43963867 6.82108398,7.14025391 C6.82108398,6.84109375 6.5777832,6.59759766 6.27861328,6.59759766 C5.97944336,6.59759766 5.73614258,6.8412793 5.73614258,7.14030273 C5.73667969,7.43962891 5.97922852,7.68217773 6.27861328,7.68270508 Z" id="合并形状" fill="#4A90E2" fill-rule="nonzero"></path>
            <path d="M8.35980469,6.31543945 C8.81435547,6.31543945 9.18464844,6.6853418 9.18464844,7.1402832 C9.18464844,7.59522461 8.81454102,7.96512695 8.35980469,7.96512695 C7.90486328,7.96512695 7.53496094,7.59522461 7.53496094,7.1402832 C7.53496094,6.6853418 7.90485352,6.31543945 8.35980469,6.31543945 Z M8.35980469,7.68270508 L8.35984375,7.68271484 C8.65910156,7.6821875 8.90162109,7.43960937 8.90206055,7.14021484 C8.90162109,6.84085937 8.65914062,6.59824219 8.35973633,6.59759766 C8.06033203,6.598125 7.81777344,6.84080078 7.81733398,7.14030273 C7.81787109,7.43962891 8.06041992,7.68217773 8.35980469,7.68270508 Z" id="合并形状" fill="#4A90E2" fill-rule="nonzero"></path>
        </g>
    </g>
</svg>