<?xml version="1.0" encoding="UTF-8"?>
<svg width="16px" height="16px" viewBox="0 0 16 16" version="1.1" xmlns="http://www.w3.org/2000/svg" xmlns:xlink="http://www.w3.org/1999/xlink">
    <!-- Generator: Sketch 53.2 (72643) - https://sketchapp.com -->
    <title>常用模板</title>
    <desc>Created with Sketch.</desc>
    <g id="Page-1" stroke="none" stroke-width="1" fill="none" fill-rule="evenodd">
        <g id="分组-10">
            <rect id="矩形" fill="#52C41A" x="0" y="0" width="16" height="16" rx="3"></rect>
            <g id="模板管理-copy" transform="translate(2.666667, 2.000000)" fill-rule="nonzero">
                <g id="分组" transform="translate(0.000000, -0.000000)">
                    <rect id="矩形" fill="#000000" opacity="0" x="0" y="0" width="11.3333333" height="11.3333333"></rect>
                    <path d="M1.19664063,6.76325521 L5.14471354,6.76325521 C5.41416426,6.76319418 5.63261623,6.54484128 5.63279948,6.27539063 L5.63279948,1.47078776 C5.63279948,1.20116422 5.41422641,0.982591146 5.14460286,0.982591146 L1.19664063,0.982591146 C1.06714366,0.982561788 0.942940503,1.03398368 0.851361939,1.12554149 C0.759783375,1.21709929 0.70833333,1.34129079 0.708333333,1.47078776 L0.708333333,6.27539062 C0.708516643,6.54492772 0.927103478,6.76331638 1.19664063,6.76325521 Z M1.34306641,1.85151693 C1.34306641,1.72211474 1.44796761,1.61721354 1.57736979,1.61721354 L4.76398437,1.61721354 C4.89338656,1.61721354 4.99828776,1.72211474 4.99828776,1.85151693 L4.99828776,5.8944401 C4.99828776,6.02384229 4.89338656,6.12874349 4.76398437,6.12874349 L1.57736979,6.12874349 C1.44796761,6.12874349 1.34306641,6.02384229 1.34306641,5.8944401 L1.34306641,1.85151693 Z M7.50014323,6.76325521 L10.1342578,6.76325521 C10.4043704,6.76325521 10.6233398,6.54428572 10.6233398,6.27417318 L10.6233398,5.04034505 C10.6233398,4.7702325 10.4043704,4.55126302 10.1342578,4.55126302 L7.50014323,4.55126302 C7.23003068,4.55126302 7.0110612,4.7702325 7.0110612,5.04034505 L7.0110612,6.27417318 C7.0110612,6.54428572 7.23003068,6.76325521 7.50014323,6.76325521 L7.50014323,6.76325521 Z M7.64557292,5.42007812 C7.64554341,5.3578704 7.670265,5.29820692 7.71428364,5.25425057 C7.75830228,5.21029421 7.81800071,5.18565714 7.88020833,5.18577474 L9.75507813,5.18577474 C9.88441919,5.18577474 9.98927083,5.29062639 9.98927083,5.41996745 L9.98927083,5.8944401 C9.98927083,6.02378117 9.88441919,6.12863281 9.75507813,6.12863281 L7.88020833,6.12863281 C7.75086727,6.12863281 7.64601562,6.02378117 7.64601562,5.8944401 L7.64557292,5.42007812 Z M7.50014323,3.17798177 L10.1342578,3.17798177 C10.4043704,3.17798177 10.6233398,2.95901229 10.6233398,2.68889974 L10.6233398,1.45507161 C10.6233398,1.18495907 10.4043704,0.965989583 10.1342578,0.965989583 L7.50014323,0.965989583 C7.23003068,0.965989583 7.0110612,1.18495907 7.0110612,1.45507161 L7.0110612,2.68889974 C7.0110612,2.95901229 7.23003068,3.17798177 7.50014323,3.17798177 L7.50014323,3.17798177 Z M7.64557292,1.83469401 C7.64557281,1.77250546 7.67030737,1.71287044 7.71432282,1.66893804 C7.75833827,1.62500564 7.8180199,1.60038374 7.88020833,1.6005013 L9.75507813,1.6005013 C9.88441919,1.6005013 9.98927083,1.70535295 9.98927083,1.83469401 L9.98927083,2.30916667 C9.98927083,2.43850773 9.88441919,2.54335937 9.75507813,2.54335937 L7.88020833,2.54335937 C7.75086727,2.54335937 7.64601562,2.43850773 7.64601562,2.30916667 L7.64557292,1.83469401 Z M10.1261784,8.13321615 L1.20936849,8.13321615 C1.07649588,8.13318679 0.949055346,8.18594965 0.855089845,8.27989439 C0.761124343,8.37383914 0.70833333,8.50126801 0.708333333,8.63414063 L0.708333333,9.86132812 C0.708333333,10.1379811 0.932604862,10.3622526 1.20925781,10.3622526 L10.1261784,10.3622526 C10.2590318,10.3622526 10.3864439,10.3094768 10.4803855,10.2155352 C10.574327,10.1215937 10.6271029,9.99418156 10.6271029,9.86132812 L10.6271029,8.63414063 C10.6271029,8.35748767 10.4028313,8.13321615 10.1261784,8.13321615 Z M9.99248047,9.49244141 C9.99248048,9.55474848 9.96772152,9.61450199 9.92365339,9.65854936 C9.87958526,9.70259674 9.81982008,9.72732754 9.75751302,9.72729818 L1.57792318,9.72729818 C1.51561611,9.72732754 1.45585094,9.70259674 1.41178281,9.65854936 C1.36771468,9.61450199 1.34295572,9.55474848 1.34295573,9.49244141 L1.34295573,9.00269531 C1.34295573,8.94037807 1.36771116,8.88061318 1.4117761,8.83654824 C1.45584105,8.79248329 1.51560594,8.76772786 1.57792318,8.76772786 L9.7576237,8.76772786 C9.88739264,8.76772786 9.99259115,8.87292637 9.99259115,9.00269531 L9.99248047,9.49244141 Z" id="形状" fill="#FFFFFF"></path>
                </g>
            </g>
        </g>
    </g>
</svg>