<?xml version="1.0" encoding="UTF-8"?>
<svg width="16px" height="16px" viewBox="0 0 16 16" version="1.1" xmlns="http://www.w3.org/2000/svg" xmlns:xlink="http://www.w3.org/1999/xlink">
    <!-- Generator: Sketch 53.2 (72643) - https://sketchapp.com -->
    <title>暂无图片</title>
    <desc>Created with Sketch.</desc>
    <g id="Page-1" stroke="none" stroke-width="1" fill="none" fill-rule="evenodd">
        <g id="图片" fill-rule="nonzero">
            <g id="分组" transform="translate(0.000000, -0.000000)">
                <rect id="矩形" fill="#000000" opacity="0" x="0" y="0" width="16" height="16"></rect>
                <path d="M11.5309091,8 L6.69818181,8 L8.41090909,5.45454545 L9.64,6.90909091 L10.4218182,6.03272727 C8.98207978,4.33696439 6.6958597,3.61969113 4.54545455,4.18909091 L4.54545455,10.3709091 L11.7927273,10.3709091 C11.7927273,10.1927273 11.8181818,10.0072727 11.8181818,9.83272727 C11.8210604,9.21038576 11.7240702,8.59161307 11.5309091,8 L11.5309091,8 Z M6.36727273,4.91272727 C6.36727273,4.69211149 6.50016847,4.49321897 6.70399087,4.40879297 C6.90781326,4.32436697 7.14242299,4.37103375 7.2984219,4.52703266 C7.4544208,4.68303157 7.50108757,4.9176413 7.41666157,5.12146369 C7.33223556,5.32528609 7.13334304,5.45818182 6.91272727,5.45818181 C6.61848442,5.45632463 6.37874987,5.22141695 6.37090909,4.92727273 L6.36727273,4.91272727 Z" id="形状" fill="#EDF6FF"></path>
                <path d="M3.81818181,4.42545455 C1.25370164,5.46118055 -0.227224034,8.15908493 0.275900995,10.8786717 C0.779026025,13.5982584 3.12712994,15.5877903 5.89241749,15.6375063 C8.65770504,15.6872224 11.0758065,13.7833804 11.6763636,11.0836364 L3.81818181,11.0836364 L3.81818181,4.42545455 Z" id="路径" fill="#EDF6FF"></path>
                <path d="M15.4545455,1.26545455 L3.81818181,1.26545455 L3.81818181,11.0836364 L15.4545455,11.0836364 L15.4545455,1.26545455 Z M14.7272727,10.3563636 L4.54545455,10.3563636 L4.54545455,1.99272727 L14.7272727,1.99272727 L14.7272727,10.3563636 Z" id="形状" fill-opacity="0.45" fill="#000000"></path>
                <polygon id="路径" fill="#2394FB" points="8.41090909 5.47272727 6.69818181 8.01818181 13.2581818 8.01818181 11.2727273 5.07636364 10.4181818 6.03636364 9.63636364 6.91272727"></polygon>
                <path d="M6.37090909,4.92727273 C6.37090909,5.22851896 6.61511741,5.47272728 6.91636364,5.47272728 C7.21760987,5.47272728 7.46181819,5.22851896 7.46181819,4.92727273 C7.46181819,4.62602651 7.21760987,4.38181819 6.91636364,4.38181819 C6.61511741,4.38181819 6.37090909,4.62602651 6.37090909,4.92727273 L6.37090909,4.92727273 Z" id="路径" fill="#2394FB"></path>
            </g>
        </g>
    </g>
</svg>