<?xml version="1.0" standalone="no"?>
<!DOCTYPE svg PUBLIC "-//W3C//DTD SVG 1.1//EN" "http://www.w3.org/Graphics/SVG/1.1/DTD/svg11.dtd" >
<!--
2013-9-30: Created.
-->
<svg>
<metadata>
Created by iconfont
</metadata>
<defs>

<font id="iconfont" horiz-adv-x="1024" >
  <font-face
    font-family="iconfont"
    font-weight="500"
    font-stretch="normal"
    units-per-em="1024"
    ascent="896"
    descent="-128"
  />
    <missing-glyph />
    
    <glyph glyph-name="mima" unicode="&#58942;" d="M0 896h1024v-1024H0zM824.128 613.888a359.936 359.936 0 0 1-72.704 113.408 337.216 337.216 0 0 1-107.648 76.928 321.28 321.28 0 0 1-263.68-0.128 336.448 336.448 0 0 1-107.584-76.8 358.4 358.4 0 0 1-72.704-113.408 368 368 0 0 1-26.688-138.56v-470.208c0-38.4 29.696-69.632 66.304-69.632h544.896c36.608 0 66.304 31.232 66.048 69.632V420.096l0.256 19.072v36.16a365.44 365.44 0 0 1-26.496 138.56z m-417.408 127.36h0.192l1.28 0.448a248.32 248.32 0 0 0 103.68 22.4c35.904 0 70.912-7.616 103.808-22.208 31.936-14.4 60.928-35.072 86.016-61.44 25.28-26.624 44.992-57.6 58.88-91.968 14.528-35.84 21.824-73.792 21.824-113.152v-29.632H241.408v29.696c0 39.04 7.296 76.992 21.76 113.088 14.08 34.688 33.92 65.6 58.88 91.904 24.96 26.24 53.248 46.72 84.672 60.8zM782.72 377.6v-372.416c0-0.64-0.128-1.088-0.192-1.408H241.6a4.608 4.608 0 0 0-0.192 1.408V377.6h541.312zM480.384 224v-89.472a31.68 31.68 0 0 1 63.36 0v89.664a58.752 58.752 0 1 1-90.496 49.216c0.128-19.904 10.432-38.72 27.136-49.408z"  horiz-adv-x="1024" />

    
    <glyph glyph-name="jiantou" unicode="&#58943;" d="M514.88 514.688L244.672 264.64a33.408 33.408 0 0 0-42.752-2.24 23.232 23.232 0 0 0-1.856 35.712l291.008 269.248a33.344 33.344 0 0 0 23.808 8.896 33.344 33.344 0 0 0 23.808-8.896l290.944-269.248a23.232 23.232 0 0 0-1.856-35.712 33.408 33.408 0 0 0-42.752 2.24L514.88 514.688z"  horiz-adv-x="1024" />

    
    <glyph glyph-name="wodeliuchengtu" unicode="&#58945;" d="M641.024 513.728H385.472a64 64 0 0 0-64 64V734.016a64 64 0 0 0 64 64h255.552a64 64 0 0 0 64-64v-156.288a64 64 0 0 0-64-64z m-255.424 64h255.36l0.128 0.064v156.16H385.472l0.128-156.224c-0.128 0-0.128 0 0 0z m-1.088-608.128H129.024a64 64 0 0 0-64 64v160.512a64 64 0 0 0 64 64h255.488a64 64 0 0 0 64-64v-160.64a64 64 0 0 0-64-63.872z m-255.36 64h255.36l0.064 0.128v160.384l-0.064 0.064h-255.36l-0.128-0.064 0.064-160.512c-0.064 0 0 0 0 0z m768-64h-255.424a64 64 0 0 0-64 64v160.512a64 64 0 0 0 64 64h255.488a64 64 0 0 0 64-64v-160.64a64 64 0 0 0-64-63.872z m-255.36 64h255.36l0.128 0.128v160.384l-0.064 0.064h-255.36l-0.128-0.064 0.064-160.512c-0.064 0 0 0 0 0z m160.32 189.44h-64v129.92l-0.128 0.128H289.088l-0.064-0.064v-126.912h-64V353.088a64 64 0 0 0 64 64h448.96a64 64 0 0 0 64-64v-130.112h0.128zM481.088 550.912h64v-166.464h-64V550.976z"  horiz-adv-x="1024" />

    
    <glyph glyph-name="tianjia" unicode="&#58946;" d="M900.672 463.808H548.48V786.688a36.8 36.8 0 0 1-36.736 36.736 36.8 36.8 0 0 1-36.672-36.736v-322.88H122.816a36.8 36.8 0 0 1-36.736-36.736c0-20.16 16.512-36.672 36.736-36.672h352.256v-381.632a36.8 36.8 0 0 1 73.408 0V390.4h352.32a36.8 36.8 0 0 1 36.672 36.672 36.928 36.928 0 0 1-36.8 36.736z"  horiz-adv-x="1024" />

    
    <glyph glyph-name="mobanguanli" unicode="&#58947;" d="M108.16 284.928h356.672a44.16 44.16 0 0 1 44.16 44.096V763.136a44.16 44.16 0 0 1-44.16 44.096H108.096a44.16 44.16 0 0 1-44.096-44.16v-434.048c0-24.32 19.776-44.16 44.16-44.16z m13.184 443.776a21.12 21.12 0 0 0 21.12 21.12h288a21.12 21.12 0 0 0 21.12-21.12v-365.312a21.12 21.12 0 0 0-21.12-21.12h-288a21.12 21.12 0 0 0-21.12 21.12V728.704z m556.288-443.776h238.08a44.16 44.16 0 0 1 44.16 44.16V440.576a44.16 44.16 0 0 1-44.16 44.16h-238.08a44.16 44.16 0 0 1-44.16-44.16v-111.488c0-24.384 19.84-44.16 44.16-44.16z m13.184 121.344a21.12 21.12 0 0 0 21.184 21.12h169.408a21.12 21.12 0 0 0 21.12-21.12v-42.88a21.12 21.12 0 0 0-21.12-21.12h-169.408a21.12 21.12 0 0 0-21.12 21.12l-0.064 42.88z m-13.184 202.56h238.08a44.16 44.16 0 0 1 44.16 44.16V764.608a44.16 44.16 0 0 1-44.16 44.16h-238.08a44.16 44.16 0 0 1-44.16-44.16v-111.488c0-24.384 19.84-44.16 44.16-44.16z m13.184 121.408a21.12 21.12 0 0 0 21.184 21.12h169.408a21.12 21.12 0 0 0 21.12-21.12v-42.88a21.12 21.12 0 0 0-21.12-21.12h-169.408a21.12 21.12 0 0 0-21.12 21.12l-0.064 42.88z m224.128-569.088H109.248A45.248 45.248 0 0 1 64 115.84v-110.912c0-24.96 20.288-45.248 45.248-45.248h805.696a45.248 45.248 0 0 1 45.248 45.248v110.912a45.248 45.248 0 0 1-45.248 45.248z m-12.096-122.88a21.248 21.248 0 0 0-21.248-21.12H142.592a21.248 21.248 0 0 0-21.248 21.12v44.288a21.248 21.248 0 0 0 21.248 21.248h739.008c11.776 0 21.248-9.472 21.248-21.248v-44.224z"  horiz-adv-x="1024" />

    
    <glyph glyph-name="guanbi" unicode="&#58951;" d="M512 384m-512 0a512 512 0 1 1 1024 0 512 512 0 1 1-1024 0ZM303.872 132.096a43.776 43.776 0 0 0-30.976 74.752l416.256 416.192a43.776 43.776 0 1 0 61.888-61.888l-416.192-416.192a43.648 43.648 0 0 0-30.976-12.8zM720.128 132.096a43.648 43.648 0 0 0-30.976 12.8L272.96 561.216a43.776 43.776 0 0 0 61.888 61.888l416.192-416.192a43.776 43.776 0 0 0-30.912-74.752z"  horiz-adv-x="1024" />

    
    <glyph glyph-name="xuanzeyangshi" unicode="&#58952;" d="M4.8 0.128c0-69.312 56.256-125.568 125.696-125.568h126.4V568.704H4.8v-568.576zM887.36 883.84H130.56A125.696 125.696 0 0 1 4.8 758.272V631.68h1008.128v-62.976H320V-125.44h567.424a125.696 125.696 0 0 1 125.696 125.568V758.272A125.632 125.632 0 0 1 887.36 883.84z"  horiz-adv-x="1024" />

    
    <glyph glyph-name="baocun" unicode="&#58953;" d="M659.648 316.48c12.8 12.8 12.8 32.768 0 45.568L533.76 488a33.728 33.728 0 0 1-21.952 9.152 33.728 33.728 0 0 1-21.888-9.152L363.904 362.048a33.728 33.728 0 0 1-9.152-21.952c0-9.152 3.648-16.448 9.152-21.952a33.728 33.728 0 0 1 21.952-9.088 30.272 30.272 0 0 1 21.888 9.088l67.584 67.584v-346.88a32 32 0 0 1 30.976-31.104 30.848 30.848 0 0 1 31.04 31.104V391.296l74.88-74.88a33.728 33.728 0 0 1 21.952-9.088c12.672 0 19.968 1.792 25.472 9.152M965.632 412.16c38.272-43.904 58.368-100.48 58.368-160.704 0-131.456-120.448-228.16-231.744-239.104h-82.176a30.848 30.848 0 0 0-31.104 31.104 30.72 30.72 0 0 0 31.104 30.912h80.32c82.176 9.152 167.872 78.528 167.872 175.232 0 98.56-74.88 175.168-169.728 175.168a30.784 30.784 0 0 0-31.04 30.976c0 135.104-107.648 244.608-240.96 244.608-133.248 0-242.688-109.44-242.688-244.608a30.72 30.72 0 0 0-30.976-30.976C144.32 424.832 64 346.368 64 249.6c0-87.68 67.52-164.224 153.344-175.232h80.384a30.72 30.72 0 0 0 30.976-30.912 30.784 30.784 0 0 0-30.976-31.104H217.344C94.976 23.296 0 127.296 0 251.456c0 60.16 21.952 116.8 62.08 160.512a243.328 243.328 0 0 0 149.696 76.736 317.44 317.44 0 0 0 96.64 197.12A305.408 305.408 0 0 0 516.608 768c76.736 0 151.552-29.248 208.128-82.176a308.608 308.608 0 0 0 96.832-197.12c56.448-7.232 105.792-34.624 144.128-76.608"  horiz-adv-x="1024" />

    
    <glyph glyph-name="shuoming" unicode="&#58955;" d="M512 832a448 448 0 0 1-448-448 448 448 0 0 1 448-448 448 448 0 0 1 448 448 448 448 0 0 1-448 448z m272.192-720.192a382.976 382.976 0 0 0-122.368-82.56A381.312 381.312 0 0 0 512-1.024a382.72 382.72 0 0 0-272.192 112.704 382.976 382.976 0 0 0-82.56 122.432A382.08 382.08 0 0 0 126.976 384a382.72 382.72 0 0 0 112.704 272.192 382.976 382.976 0 0 0 122.432 82.56A382.08 382.08 0 0 0 512 769.024a382.72 382.72 0 0 0 272.192-112.704 382.976 382.976 0 0 0 82.56-122.432A382.08 382.08 0 0 0 897.024 384a382.72 382.72 0 0 0-112.832-272.192zM615.424 214.592H540.864V520.96a31.488 31.488 0 0 1-31.488 31.488H425.408a31.488 31.488 0 1 1 0-62.976h52.48v-274.88H403.328a31.488 31.488 0 1 1 0-62.976h212.096a31.488 31.488 0 1 1 0 62.976zM477.888 639.04a31.488 31.488 0 1 1 62.976 0 31.488 31.488 0 0 1-62.976 0z"  horiz-adv-x="1024" />

    
    <glyph glyph-name="weixunlianchenggong" unicode="&#58958;" d="M128 384a384 384 0 1 0 768 0A384 384 0 0 0 128 384z m609.536 16.832h-462.72v-51.392h462.72v51.392z"  horiz-adv-x="1024" />

    
    <glyph glyph-name="qingjiangVisiowenjiantuodaocichuhuodianjishangchuan" unicode="&#58959;" d="M827.84 472C797.952 621.632 669.888 736 512 736c-123.776 0-230.4-70.4-281.6-176.064C98.112 542.4 0 432.384 0 295.936c0-145.28 115.2-263.936 256-263.936h554.688c119.424 0 213.312 96.832 213.312 219.968 0.128 114.368-89.472 211.2-196.16 220.032z m-230.272-122.24v-157.952a15.936 15.936 0 0 0-16.064-15.808H442.56a15.936 15.936 0 0 0-16.128 15.808V349.76H336.064a15.744 15.744 0 0 0-11.52 26.752l176 178.624c6.272 6.464 16.64 6.464 22.976 0l175.936-178.56c9.856-10.048 2.56-26.88-11.52-26.88H597.568z"  horiz-adv-x="1024" />

    
    <glyph glyph-name="yonghu" unicode="&#58960;" d="M623.104 291.84c-4.736 0-37.312 18.176-18.56 77.376 51.2 54.592 93.056 141.056 93.056 222.976 0 132.032-88.512 200.192-186.24 200.192-102.4 0-186.368-68.288-186.368-200.192 0-86.464 41.92-172.864 93.12-227.52 18.56-50.048-18.56-72.768-27.904-72.768-102.4-40.96-228.224-109.184-228.224-177.536v-27.392c0-90.944 181.632-113.792 349.248-113.792 167.552 0 349.376 22.848 349.376 113.792v27.328c0 72.768-125.696 141.12-237.504 177.472z"  horiz-adv-x="1024" />

    
    <glyph glyph-name="yulan" unicode="&#58961;" d="M929.024 512.768C826.88 669.056 676.992 768 509.504 768c-167.424 0-316.8-98.944-419.52-255.232-45.312-68.928-45.312-171.264 0-240.192 102.784-156.288 252.672-255.232 419.52-255.232 167.488 0 316.8 98.944 419.52 255.232 45.376 68.928 45.376 171.264 0 240.192z m-45.312-183.552c-94.912-154.88-231.552-243.648-374.784-243.648-143.296 0-279.872 88.704-374.784 243.648-23.04 36.16-23.04 90.048 0 126.912 94.912 154.88 231.488 243.648 374.784 243.648 143.232 0 279.872-88.768 374.784-243.648 22.4-36.864 22.4-90.752 0-126.912zM510.144 631.488c-116.672 0-211.584-107.136-211.584-238.848 0-131.712 94.912-238.848 211.584-238.848s211.584 107.136 211.584 238.848c0 131.712-94.912 238.848-211.584 238.848z m0-409.408c-83.456 0-151.168 76.416-151.168 170.56 0 94.208 67.712 170.624 151.168 170.624 83.392 0 151.104-76.416 151.104-170.624 0-94.144-67.712-170.56-151.104-170.56z"  horiz-adv-x="1024" />

    
    <glyph glyph-name="shibai" unicode="&#58962;" d="M512 768a384 384 0 1 1 0-768A384 384 0 1 1 512 768z m184.576-533.184c9.664-9.664 9.856-25.408 0.384-35.328a24.32 24.32 0 0 0-34.688-0.384L512 349.056l-150.272-149.888a24.192 24.192 0 0 0-34.688 0.384 25.216 25.216 0 0 0 0.384 35.328L476.992 384 327.424 533.184a25.408 25.408 0 0 0-0.384 35.328 24.32 24.32 0 0 0 34.688 0.384L512 418.944l150.272 149.888a24.192 24.192 0 0 0 34.688-0.384c9.536-9.856 9.344-25.664-0.384-35.328L547.008 384l149.568-149.184z"  horiz-adv-x="1024" />

    
    <glyph glyph-name="chenggong" unicode="&#58963;" d="M512 768a384 384 0 1 1 0-768A384 384 0 0 1 512 768z m223.616-275.2l-299.968-331.52a21.248 21.248 0 0 0-32.64 0L288.32 285.696a28.8 28.8 0 0 0 0 37.12c8.96 10.24 23.68 10.24 32.64 0l98.304-105.856 283.584 312.96c9.024 10.24 23.68 10.24 32.704 0a28.8 28.8 0 0 0 0-37.12z"  horiz-adv-x="1024" />

    
    <glyph glyph-name="shuoming1" unicode="&#58966;" d="M512 832a448 448 0 0 1-448-448 448 448 0 0 1 448-448 448 448 0 0 1 448 448 448 448 0 0 1-448 448z m272.192-720.192a382.976 382.976 0 0 0-122.368-82.56A381.312 381.312 0 0 0 512-1.024a382.72 382.72 0 0 0-272.192 112.704 382.976 382.976 0 0 0-82.56 122.432A382.08 382.08 0 0 0 126.976 384a382.72 382.72 0 0 0 112.704 272.192 382.976 382.976 0 0 0 122.432 82.56A382.08 382.08 0 0 0 512 769.024a382.72 382.72 0 0 0 272.192-112.704 382.976 382.976 0 0 0 82.56-122.432A382.08 382.08 0 0 0 897.024 384a382.72 382.72 0 0 0-112.832-272.192zM615.424 214.592H540.864V520.96a31.488 31.488 0 0 1-31.488 31.488H425.408a31.488 31.488 0 1 1 0-62.976h52.48v-274.88H403.328a31.488 31.488 0 1 1 0-62.976h212.096a31.488 31.488 0 1 1 0 62.976zM477.888 639.04a31.488 31.488 0 1 1 62.976 0 31.488 31.488 0 0 1-62.976 0z"  horiz-adv-x="1024" />

    
    <glyph glyph-name="shanchu" unicode="&#58970;" d="M382.336 490.624v-384a20.608 20.608 0 0 0-21.568-21.248H317.44a20.608 20.608 0 0 0-21.568 21.312v384A20.608 20.608 0 0 0 317.44 512h43.136a20.608 20.608 0 0 0 21.568-21.376h0.128z m172.864 0v-384a20.608 20.608 0 0 0-21.632-21.248h-43.136a20.608 20.608 0 0 0-21.568 21.312v384A20.608 20.608 0 0 0 490.432 512h43.136a20.608 20.608 0 0 0 21.568-21.376h0.064z m172.928 0v-384a20.608 20.608 0 0 0-21.632-21.248h-43.136a20.608 20.608 0 0 0-21.632 21.312v384A20.608 20.608 0 0 0 663.168 512h43.264a20.608 20.608 0 0 0 21.568-21.376h0.064z m86.4-482.624V640H209.472v-631.936c-0.192-16.192 4.928-32 14.464-45.056 3.392-3.84 5.76-5.632 7.104-5.632h561.92c1.28 0 3.648 1.792 7.04 5.632 9.6 12.992 14.72 28.8 14.592 44.992h-0.064zM360.768 725.376h302.464l-32.384 77.952a19.008 19.008 0 0 1-11.52 7.296H405.376a19.008 19.008 0 0 1-11.52-7.296l-33.024-77.952zM987.456 704v-42.624A20.608 20.608 0 0 0 965.76 640h-64.832v-631.936c0-36.928-10.56-68.8-31.744-95.744-21.248-26.88-46.592-40.32-76.288-40.32H231.04c-29.696 0-55.104 12.992-76.288 39.04-21.184 25.984-31.744 57.408-31.744 94.272V640H58.24a20.608 20.608 0 0 0-21.632 21.376V704a20.608 20.608 0 0 0 21.632 21.376h208.64l47.36 111.36c6.72 16.384 18.816 30.4 36.416 41.92C368.128 890.24 385.92 896 403.968 896h216.064c17.984 0 35.84-5.76 53.376-17.28 17.6-11.584 29.696-25.6 36.48-42.048l47.296-111.36h208.64A20.608 20.608 0 0 0 987.52 704z"  horiz-adv-x="1024" />

    
    <glyph glyph-name="xunlianmoxing" unicode="&#58971;" d="M832 703.296c-172.672 165.568-452.224 165.568-624.896 0-23.04-22.08-50.56-45.44-71.552-66.88V800.448A32.192 32.192 0 0 1 102.72 832a32.192 32.192 0 0 1-32.832-35.328v-252.416h269.824c18.112 0 32.768 14.144 32.768 31.552a32.192 32.192 0 0 1-32.768 31.552H190.016c19.072 19.584 40.064 37.888 60.416 54.912 151.04 134.656 384.576 134.656 535.68 0a337.024 337.024 0 0 0 108.224-242.304c0-17.408 14.72-31.552 32.832-31.552 18.112 0 32.832 14.08 32.832 31.552a395.392 395.392 0 0 1-128 283.328z m-145.728-480.192a32.192 32.192 0 0 1-32.832-31.552c0-17.408 14.72-31.552 32.832-31.552h149.696c-19.072-19.584-40.064-37.888-60.416-54.912-151.04-134.656-384.576-134.656-535.68 0a337.088 337.088 0 0 0-110.208 245.44 32.192 32.192 0 0 1-32.832 31.552 32.192 32.192 0 0 1-32.832-31.552 395.52 395.52 0 0 1 131.264-287.104c172.736-165.568 452.224-165.568 624.896 0 23.04 22.144 50.56 46.08 71.552 67.52v-163.392c0-17.408 14.72-31.552 32.832-31.552 18.112 0 32.832 14.08 32.832 31.552v252.416h-271.104v3.136z"  horiz-adv-x="1024" />

    
    <glyph glyph-name="xiala" unicode="&#58974;" d="M514.88 253.312L244.672 503.36a33.408 33.408 0 0 1-42.752 2.24 23.232 23.232 0 0 1-1.856-35.712l291.008-269.248a33.344 33.344 0 0 1 23.808-8.896 33.344 33.344 0 0 1 23.808 8.896l290.944 269.248a23.232 23.232 0 0 1-1.856 35.712 33.408 33.408 0 0 1-42.752-2.24l-270.144-250.048z"  horiz-adv-x="1024" />

    
    <glyph glyph-name="zhanghu" unicode="&#58980;" d="M819.392 102.016a332.8 332.8 0 0 1-71.488 105.984 332.8 332.8 0 0 1-147.392 85.888 274.56 274.56 0 0 1 106.24 66.24 273.664 273.664 0 0 1 80.768 194.688 273.28 273.28 0 0 1-80.704 194.688 273.664 273.664 0 0 1-194.688 80.64 273.28 273.28 0 0 1-194.752-80.64A273.664 273.664 0 0 1 236.8 554.816a273.28 273.28 0 0 1 80.64-194.688A274.56 274.56 0 0 1 423.68 293.888a332.8 332.8 0 0 1-147.392-85.888 332.8 332.8 0 0 1-97.664-235.904 35.968 35.968 0 1 1 72 0 259.84 259.84 0 0 0 76.544 184.96 259.84 259.84 0 0 0 185.024 76.672 259.84 259.84 0 0 0 184.96-76.608 259.84 259.84 0 0 0 76.672-184.96 35.968 35.968 0 1 1 72 0 335.488 335.488 0 0 1-26.432 129.856zM308.608 554.816A203.648 203.648 0 0 0 512 758.208a203.648 203.648 0 0 0 203.392-203.392A203.52 203.52 0 0 0 512 351.36a203.648 203.648 0 0 0-203.392 203.392z"  horiz-adv-x="1024" />

    
    <glyph glyph-name="mima1" unicode="&#58981;" d="M824.128 613.888a359.936 359.936 0 0 1-72.704 113.408 337.216 337.216 0 0 1-107.648 76.928 321.28 321.28 0 0 1-263.68-0.128 336.448 336.448 0 0 1-107.584-76.8 358.4 358.4 0 0 1-72.704-113.408 368 368 0 0 1-26.688-138.56v-470.208c0-38.4 29.696-69.632 66.304-69.632h544.896c36.608 0 66.304 31.232 66.048 69.632V420.096l0.256 19.072v36.16a365.44 365.44 0 0 1-26.496 138.56z m-417.408 127.36h0.192l1.28 0.448a248.32 248.32 0 0 0 103.68 22.4c35.904 0 70.912-7.616 103.808-22.208 31.936-14.4 60.928-35.072 86.016-61.44 25.28-26.624 44.992-57.6 58.88-91.968 14.528-35.84 21.824-73.792 21.824-113.152v-29.632H241.408v29.696c0 39.04 7.296 76.992 21.76 113.088 14.08 34.688 33.92 65.6 58.88 91.904 24.96 26.24 53.248 46.72 84.672 60.8zM782.72 377.6v-372.416c0-0.64-0.128-1.088-0.192-1.408H241.6a4.608 4.608 0 0 0-0.192 1.408V377.6h541.312zM480.384 224v-89.472a31.68 31.68 0 0 1 63.36 0v89.664a58.752 58.752 0 1 1-90.496 49.216c0.128-19.904 10.432-38.72 27.136-49.408z"  horiz-adv-x="1024" />

    
    <glyph glyph-name="daorushuju1" unicode="&#58984;" d="M195.586966 889.910457c357.244651-156.350534 275.965413-437.051903 275.965413-437.051903H362.241404l190.398215-125.438824 184.57427 125.438824H633.790858s45.439574 392.316322-394.236304 442.811849c-11.071896 1.279988-54.079493-1.279988-43.967588-5.759946z m606.522314-601.850358c-4.095962 12.479883-21.055803 22.591788-37.887645 22.591789H567.807477l-14.97586-10.239904-15.423855 10.239904H152.067374c-16.831842 0-27.199745-10.111905-23.231782-22.591789l102.207042-314.109055c4.095962-12.479883 20.991803-22.527789 37.887645-22.527789h612.21826c16.895842 0 27.263744 10.047906 23.167783 22.527789l-102.207042 314.109055z m58.751449 217.981957h-160.318497c-17.02384 1.02399-30.527714-11.967888-41.023615-30.719712h150.910585L612.799055 341.115602h151.42258c14.527864 0 27.77574-4.095962 39.359631-10.879898a60.79943 60.79943 0 0 0 27.519742-32.767693l77.055278-236.669781V437.3067s-3.071971 68.735356-47.295557 68.735356z m-625.914132-130.17478v-34.687675h255.9976L391.937126 406.39499H265.474311a30.527714 30.527714 0 0 1-30.591713-30.527714z"  horiz-adv-x="1024" />

    
    <glyph glyph-name="shangchuan1" unicode="&#58985;" d="M488.512 821.888a34.56 34.56 0 0 0 48.96 0l155.904-155.904a34.56 34.56 0 0 0-48.768-48.896L547.712 713.984v-577.792a34.56 34.56 0 0 0-69.184 0V713.984L381.632 617.088a34.432 34.432 0 0 0-48.832 0 34.688 34.688 0 0 0-0.128 48.896l155.84 155.904zM916.736 248.896a33.92 33.92 0 0 1-33.92-33.92v-191.232c0-11.072-8.96-20.16-20.16-20.16H161.28a20.224 20.224 0 0 0-20.16 20.16v191.36a33.92 33.92 0 0 1-67.648 0v-218.24c0-33.536 27.328-60.8 60.8-60.8h755.584a60.8 60.8 0 0 1 60.8 60.8v218.24a33.92 33.92 0 0 1-33.92 33.792z"  horiz-adv-x="1024" />

    
    <glyph glyph-name="xiazai" unicode="&#58996;" d="M872.512 236.8c-17.024 0-32-14.912-32-32 0-70.4-46.912-128-106.624-128h-441.6c-59.776 0-106.688 57.6-106.688 128 0 17.088-14.912 32-32 32s-32-14.912-32-32c0-106.688 76.8-192 170.688-192h441.6c93.824 0 170.624 85.312 170.624 192 0 17.088-14.912 32-32 32z m-381.824-14.912c6.4-6.4 14.912-8.576 23.424-8.576a32.064 32.064 0 0 1 23.488 8.576l121.6 121.6c12.8 12.8 12.8 32 0 44.8-12.8 12.8-32 12.8-44.8 0L548.288 322.112V684.8c0 17.088-14.976 32-32 32-17.088 0-32-14.912-32-32v-362.688L418.112 388.288c-12.8 12.8-32 12.8-44.8 0-12.8-12.8-12.8-32 0-44.8l117.376-121.6z"  horiz-adv-x="1024" />

    
    <glyph glyph-name="bianji" unicode="&#58997;" d="M120.96-16.32h786.688v-65.152H120.96v65.152z m55.936 130.368h9.28l204.8 65.152c4.672 0 9.344 4.672 13.952 9.28L870.4 653.952a35.584 35.584 0 0 1 9.28 23.296 35.584 35.584 0 0 1-9.28 23.232L726.08 844.8c-13.952 13.952-32.576 13.952-46.528 0L214.08 379.328c-4.608-4.608-4.608-9.28-9.28-13.952l-65.152-204.8c-4.672-13.952 0-23.296 9.28-32.576 9.344-9.28 18.624-13.952 27.968-13.952z m93.056 223.36l432.896 432.896 97.728-97.728-432.896-432.896-139.584-41.856 41.856 139.648z"  horiz-adv-x="1024" />

    
    <glyph glyph-name="fanhui" unicode="&#58998;" d="M512-127.744c282.176 0 511.744 229.568 511.744 511.744C1023.744 666.176 794.176 895.68 512 895.68 229.824 895.68 0.256 666.24 0.256 384c0-282.24 229.568-511.744 511.744-511.744zM512 840.128c251.52 0 456.128-204.608 456.128-456.128 0-251.52-204.608-456.128-456.128-456.128C260.48-72.128 55.872 132.544 55.872 384 55.872 635.52 260.48 840.128 512 840.128zM625.088 103.936a27.776 27.776 0 0 1 19.648 47.424L412.16 384l232.576 232.64a27.712 27.712 0 0 1-19.328 47.808 27.712 27.712 0 0 1-19.968-8.512L353.152 403.648a27.712 27.712 0 0 1 0-39.296l252.288-252.288a27.52 27.52 0 0 1 19.52-8.128h0.128z"  horiz-adv-x="1024" />

    
    <glyph glyph-name="shuangjiantou" unicode="&#59037;" d="M618.788571-73.874286a49.005714 49.005714 0 0 1-12.434285 31.963429l0.512 0.438857-2.56 2.56-0.146286 0.146286-409.526857 409.526857a18.285714 18.285714 0 0 0 0 25.819428l412.233143 412.233143-0.731429 0.731429A49.005714 49.005714 0 0 1 618.788571 841.874286a49.590857 49.590857 0 0 1-49.590857 49.590857 48.713143 48.713143 0 0 1-40.96-23.259429c-1.462857-0.804571-3.364571-0.658286-4.681143-1.974857l-469.577142-469.577143a18.285714 18.285714 0 0 1 0-25.892571l469.577142-469.650286c1.462857-1.462857 3.584-1.389714 5.339429-2.194286 8.850286-13.165714 23.186286-22.381714 40.301714-22.381714a49.590857 49.590857 0 0 1 49.590857 49.590857zM884.882286 868.205714c-1.462857-0.804571-3.364571-0.658286-4.681143-1.974857l-469.577143-469.577143a18.285714 18.285714 0 0 1 0-25.892571l469.577143-469.650286c1.462857-1.462857 3.584-1.389714 5.339428-2.194286 8.923429-13.165714 23.259429-22.381714 40.301715-22.381714a49.590857 49.590857 0 0 1 49.590857 49.590857 49.005714 49.005714 0 0 1-12.434286 31.963429l0.512 0.438857-2.56 2.56-0.146286 0.146286-409.526857 409.526857a18.285714 18.285714 0 0 0 0 25.819428l412.233143 412.233143-0.731428 0.731429a49.005714 49.005714 0 0 1 12.653714 32.329143 49.590857 49.590857 0 0 1-49.590857 49.590857 48.713143 48.713143 0 0 1-40.96-23.259429z"  horiz-adv-x="1024" />

    
    <glyph glyph-name="paixu" unicode="&#59061;" d="M327.04 209.088l-68.032-67.968V347.968H190.976v-206.848l-67.968 67.968-48.128-48.064 150.144-150.144 150.08 150.144-48.128 48.064zM224.96 821.12L74.88 670.976l48.128-48.064 67.968 67.968v-206.848h68.032V690.88l67.968-67.968 48.128 48.064L225.024 821.12z m220.992-65.152h441.984V688H446.016V756.032z m0-203.968h441.984v-68.032H446.016V552z m0-204.032h441.984v-67.968H446.016V348.032z m0-203.968h441.984v-68.032H446.016V144z"  horiz-adv-x="1024" />

    
    <glyph glyph-name="kuayeyinyong" unicode="&#59072;" d="M1024 768v-512l-512-256-512 256V768h1024z m-64-64H64v-426.688L512 64l448 213.312V704z"  horiz-adv-x="1024" />

    
    <glyph glyph-name="liucheng" unicode="&#59073;" d="M1024 640v-512H0V640h1024z m-64-64H64v-384h896V576z"  horiz-adv-x="1024" />

    
    <glyph glyph-name="liuchenghewendang" unicode="&#59074;" d="M1024 832v-900.608c-87.168 79.104-173.824 118.72-260.032 118.72C627.328 50.112 478.72-128 279.296-128c-84.224 0-177.28 19.84-279.296 59.392V832h1024z m-64-64H64v-780.544c89.216-34.304 170.688-51.456 244.352-51.456 174.528 0 340.096 192 459.648 192 75.456 0 139.456-21.312 192-64V768z"  horiz-adv-x="1024" />

    
    <glyph glyph-name="wendang" unicode="&#59075;" d="M1024 640v-508.992c-87.168 89.28-173.824 133.952-260.032 133.952C627.328 264.96 478.72 64 279.296 64c-84.224 0-177.28 22.336-279.296 67.008V640h1024z m-64-64H64v-395.904c89.216-34.752 170.688-52.096 244.352-52.096C482.88 128 584.448 320 704 320c75.456 0 160.768-21.312 256-64V576z"  horiz-adv-x="1024" />

    
    <glyph glyph-name="panduan" unicode="&#59076;" d="M512 699.968L873.472 416 512 131.968 150.528 416 512 700.032M512 768L64 416 512 64l448 352L512 768z"  horiz-adv-x="1024" />

    
    <glyph glyph-name="ziliucheng" unicode="&#59077;" d="M0 128V640h1024v-512H0z m205.312 448H64v-384h141.312V576zM768 576H256v-384h512V576z m192 0h-141.312v-384H960V576z"  horiz-adv-x="1024" />

    
    <glyph glyph-name="jieshu" unicode="&#59078;" d="M768 640a256 256 0 1 0 0-512H256a256 256 0 1 0 0 512h512z m0-64H256a192 192 0 1 1 0-384h512a192 192 0 0 1 0 384z"  horiz-adv-x="1024" />

    
    <glyph glyph-name="zhinengshengcheng" unicode="&#59085;" d="M1000.183761 891.277294a42.640518 42.640518 0 0 0-16.534078-80.725206l-129.201281-258.453749C958.413458 489.647641 1023.781934 399.247696 1023.781934 298.558743v-341.277708c0-47.093969-38.187066-85.281035-85.332224-85.281035H85.332224C38.238255-128 0-89.812934 0-42.718965v341.277708C0 399.247696 65.368477 489.647641 169.333532 552.098339L40.081063 810.552088a42.640518 42.640518 0 1 0 38.187066 19.042344l128.484633-256.969265C291.931419 614.753793 397.585714 639.836451 511.890967 639.836451s219.959549-25.031468 305.087017-67.262473l128.484632 257.020454A42.640518 42.640518 0 0 0 1000.23495 891.277294z m-353.358335-414.324549H423.487397a51.189097 51.189097 0 0 1-51.189097-51.189097v-37.214473a51.189097 51.189097 0 0 1 51.189097-51.189097h223.338029a51.189097 51.189097 0 0 1 50.881962 45.199973V383.890967h46.838024v-139.592667h-46.735645a51.189097 51.189097 0 0 1-50.984341 46.530889H423.487397a51.189097 51.189097 0 0 1-50.881962-45.251161l-0.051189-1.279728H279.236523v-232.705633h93.266534a51.189097 51.189097 0 0 1 50.98434-46.530889h223.338029a51.189097 51.189097 0 0 1 51.189097 51.189097v37.214473a51.189097 51.189097 0 0 1-51.189097 51.189097H423.487397a51.189097 51.189097 0 0 1-50.881962-45.199973l-0.051189-1.279727h-46.786834v139.592667h46.735645a51.189097 51.189097 0 0 1 50.98434-46.582078h223.338029a51.189097 51.189097 0 0 1 50.881962 45.251161v1.330917h93.420102v46.530888h-0.051189V430.473045h-93.266534a51.189097 51.189097 0 0 1-50.984341 46.4797z"  horiz-adv-x="1024" />

    
    <glyph glyph-name="shoudonghuizhi" unicode="&#59086;" d="M302.672486 777.533422c-2.712557 32.960127 12.283277 65.254909 40.739536 87.927792 28.507439 22.672882 67.558024 33.42075 106.455068 29.275144h388.253916C876.147985 895.606423 913.048997 883.834949 940.68637 861.827411c27.637373-22.007538 43.810355-52.357469 44.885142-84.396349-2.251934-66.534418-68.069827-119.045427-147.143424-117.202936H450.225352c-38.948224-4.094426-78.04999 6.653442-106.557428 29.326324-28.558619 22.724063-43.605634 54.967665-40.995438 87.927792zM176.666536 165.365601h-27.637374V724.459429h97.600873a46.21583 46.21583 0 1 1 0 92.226939H100.049595a44.833961 44.833961 0 0 1-48.621305-46.16465V119.200951a44.782781 44.782781 0 0 1 48.621305-46.062289h76.361039v-27.688554c0-18.424916 9.724261-23.031145 24.413013-13.869867l112.084904 73.853204c4.964491 4.606229 9.775441 9.263638 9.775441 13.818687 0 4.606229-4.81095 9.314818-9.724261 13.921047l-112.084903 73.597302c-14.688752 9.263638-24.464194 4.657409-24.464194-4.606229V401.511603l0.255902-236.146002zM944.473714 145.302915v4.964491c-1.688951 76.770482-19.704424 137.879785-53.125174 181.434239-26.357865 34.597897-61.928189 52.56219-103.230707 52.56219-48.314223 0-93.557627-24.259472-123.446935-39.971831-3.531442-1.791311-7.472327-4.094426-11.003769-5.834557-4.81095 5.834557-10.952589 15.251736-16.684785 22.877604-18.015473 26.101964-43.04265 62.439992-81.27435 97.037889-32.090061 28.71216-62.849434 43.503273-91.817496 43.503273-33.830192 0-61.928189-20.165047-75.132711-54.302321-18.015473-46.727633-3.531442-105.943265 35.570323-143.304899 38.2317-36.338028 76.924023-89.30966 96.219004-119.864313-17.145408 4.913311-36.030946 9.877802-54.455862 9.877802-28.558619 0-44.373338-12.590359-53.176354-22.928783-23.287046-28.71216-31.219996-60.5975-22.41698-89.360841 7.472327-23.798849 29.889308-56.554255 96.219003-75.439794 55.377108-15.712359 70.731204-22.468161 94.01825-32.345963 11.413212-4.913311 23.747669-10.338425 43.04265-17.913112 37.361634-14.842293 79.994842-22.928784 119.966673-22.928784 62.798254 0 113.773854 18.834358 148.474112 54.353501 54.916485 56.554255 54.046419 96.526086 52.306288 157.635389z m-96.628447-113.620313c-22.3658-22.877604-59.266812-35.467963-104.561396-35.467963a282.924815 282.924815 0 0 0-97.959134 18.424916c-18.015473 7.165245-30.29875 12.590359-40.841897 17.043047-24.566554 10.799048-42.172585 18.424916-101.490577 35.05852-44.373338 12.590359-52.715731 29.172783-54.046419 33.676651-3.070819 10.338425 5.271573 22.928784 10.543146 29.684587a14.33049 14.33049 0 0 0 6.141639 0.870065c11.873835 0 29.019242-4.964491 44.373338-9.468359 16.684785-4.913311 30.759373-8.956556 43.963896-8.956557 21.956358 0 32.499504 12.129736 36.849832 19.294982 12.334457 19.755604 3.992065 43.145011-4.810951 60.64868-12.7439 26.511406-66.329696 105.943265-119.915492 157.174766-23.287046 22.468161-28.149177 54.762944-20.67685 74.109105 5.732196 14.842293 14.535211 14.842293 18.015473 14.842294 7.472327 0 24.617734-3.582622 50.9756-27.893275 32.960127-30.094029 54.916485-61.518746 72.061892-86.187661 21.086292-30.554652 36.440389-53.022813 63.258877-53.022813 12.7439 0 24.157112 6.29518 43.04265 16.172982 24.566554 13.050982 61.928189 32.755406 94.888316 32.755405 22.416981 0 40.023011-8.956556 54.916484-28.251537 25.078357-32.755406 38.692323-81.27435 40.023012-144.174965v-4.913311c1.740131-54.762944 2.149573-73.699662-34.751439-111.419559z"  horiz-adv-x="1024" />

    
    <glyph glyph-name="biaotoushezhimorenbeifen" unicode="&#59089;" d="M85.489413 895.808033A80.17832 80.17832 0 0 1 0.191967 810.510587v-853.10244a80.17832 80.17832 0 0 1 85.297446-85.297446h853.10244a80.17832 80.17832 0 0 1 85.297446 85.297446V810.510587A80.17832 80.17832 0 0 1 938.591853 895.808033H85.489413zM63.989082-63.836228V448.076427h895.847146v-511.912655H63.989082z m0 575.901737V832.010918h895.847146v-319.945409H63.989082zM383.934491 768.021836h511.912655v-63.989082H383.934491zM383.934491 640.043673h511.912655v-63.989082H383.934491zM223.961787 672.038213m-95.983623 0a95.983623 95.983623 0 1 1 191.967245 0 95.983623 95.983623 0 1 1-191.967245 0Z"  horiz-adv-x="1024" />

    
    <glyph glyph-name="baocunmorenbeifen" unicode="&#59090;" d="M899.456-127.424H124.544c-61.44 0-111.168 49.792-111.168 111.168V784.256C13.376 845.696 63.168 895.36 124.544 895.36h774.912c61.44 0 111.168-49.792 111.168-111.168v-800.512c0-61.44-49.792-111.168-111.168-111.168zM787.392 835.392H238.016v-350.592h549.376V835.392z m164.864-41.728a41.728 41.728 0 0 1-41.664 41.728h-84.8V445.056h-38.4v1.344H238.016v-1.344h-38.4V835.392H113.728a41.728 41.728 0 0 1-41.728-41.728V-25.6c0-23.04 18.688-41.728 41.728-41.728h796.8c23.04 0 41.728 18.688 41.728 41.728V793.6z m-275.2-59.2l38.336 0.256v-197.952H601.088V734.72h38.4l37.504-0.256z m-37.568-159.36h37.504v120.96h-37.504v-120.96zM676.992 734.464l38.4 0.256v-197.952H601.088V734.72h38.4z"  horiz-adv-x="1024" />

    
    <glyph glyph-name="lingcunweimobanmorenbeifen" unicode="&#59091;" d="M835.264 844.992c68.352 0 123.904-55.552 123.776-123.84v-456.32c0-33.088-12.8-64.192-36.224-87.552a123.2 123.2 0 0 0-87.552-36.288H442.624V217.6h400.448c10.24 0 20.096 3.2 28.224 9.152l5.76 4.928a48 48 0 0 1 14.08 33.92V728.96a48.192 48.192 0 0 1-48.064 48H379.264a48.192 48.192 0 0 1-48.128-48v-269.44H255.04V721.28c0 64.96 50.432 118.464 114.24 123.392l9.6 0.384zM471.424 32.64a25.856 25.856 0 0 0-25.92-25.792H160a25.92 25.92 0 0 0-25.856 25.856V318.208a25.856 25.856 0 0 0 25.856 25.92h45.568v55.36h-45.568c-44.8 0-81.216-36.48-81.216-81.28v-285.504c0-44.8 36.48-81.28 81.28-81.28H445.44c44.8 0 81.28 36.48 81.28 81.28v45.44h-55.488v-45.44h0.128zM815.168 512.704L710.272 631.68c-10.496 10.496-24.448 10.496-38.464 3.52-10.496-10.496-10.496-24.512-3.52-38.464l52.48-62.976c-73.472 0-160.896-17.472-244.8-55.936-146.88-69.952-248.32-202.88-283.264-405.696-3.52-14.016 6.976-27.968 20.928-31.488 14.016-3.456 28.032 7.04 31.488 20.992 31.488 185.344 122.432 304.256 251.84 367.232 48.96 24.448 104.896 38.4 160.832 45.44 28.032 3.52 56 7.04 80.448 3.52l-90.88-80.448c-10.56-10.496-10.56-24.512-3.52-38.464 10.496-10.496 24.448-10.496 38.4-3.52l125.952 108.416c17.472 20.992 17.472 38.464 7.04 48.96z"  horiz-adv-x="1024" />

    
    <glyph glyph-name="daoruliuchengtumorenbeifen" unicode="&#59092;" d="M188.736-76.992a123.776 123.776 0 0 0-123.776 123.84v456.32c0 33.088 12.8 64.192 36.224 87.552a123.2 123.2 0 0 0 87.552 36.288h392.64V550.4H180.928c-10.24 0-20.096-3.2-28.224-9.152l-5.76-4.928a48 48 0 0 1-14.08-33.92v-463.36c0-26.432 21.568-48 48.064-48h463.808a48.192 48.192 0 0 1 48.128 48v269.44h76.096v-261.76a124.032 124.032 0 0 0-114.24-123.392l-9.6-0.384zM552.576 735.36a25.856 25.856 0 0 0 25.92 25.792H864c14.208 0 25.856-11.52 25.856-25.856v-285.504a25.856 25.856 0 0 0-25.856-25.92h-45.568v-55.36h45.568c44.8 0 81.216 36.48 81.216 81.28V735.296c0 44.8-36.48 81.28-81.28 81.28H578.56c-44.8 0-81.28-36.48-81.28-81.28v-45.44h55.488v45.44h-0.128zM384 29.696l-106.88 94.272c-9.408 9.408-9.408 21.952-3.2 34.56 9.472 9.408 22.08 9.408 34.56 3.136l56.64-47.168c0 65.984 15.68 144.576 50.24 219.968 62.848 131.968 182.272 223.104 364.48 254.528 12.608 3.136 25.152-6.272 28.288-18.88 3.2-12.544-6.272-25.088-18.816-28.288-166.528-28.224-273.408-109.952-329.92-226.176-22.016-44.032-34.56-94.272-40.896-144.576-3.136-25.152-6.272-50.24-3.136-72.32l72.32 81.728c9.408 9.472 21.952 9.472 34.56 3.2 9.408-9.472 9.408-22.016 3.136-34.56l-97.408-113.152c-18.88-15.744-34.56-15.744-44.032-6.272z"  horiz-adv-x="1024" />

    
    <glyph glyph-name="xiazaimorenbeifen" unicode="&#59093;" d="M0 896h1024v-1024H0zM488.512 111.68a34.56 34.56 0 0 1 48.96 0l155.904 155.904a34.56 34.56 0 0 1-48.768 48.896l-96.896-96.896V797.44a34.56 34.56 0 0 1-69.184 0v-577.792L381.632 316.48a34.432 34.432 0 0 1-48.832 0 34.688 34.688 0 0 1-0.128-48.896l155.84-155.904zM925.44 255.616a34.56 34.56 0 0 1-34.624-34.56V25.6a20.608 20.608 0 0 0-20.608-20.608H153.728a20.608 20.608 0 0 0-20.608 20.608v195.52a34.56 34.56 0 0 1-69.12 0v-222.912c0-34.304 27.904-62.08 62.08-62.08h771.84c34.304 0 62.08 27.84 62.08 62.08v222.912a34.56 34.56 0 0 1-34.56 34.496z"  horiz-adv-x="1024" />

    
    <glyph glyph-name="tongyongkuazhineng" unicode="&#59094;" d="M128-128a128 128 0 0 0-128 128.064V767.936A128 128 0 0 0 128 896h767.936a128 128 0 0 0 128-128.064v-768a128.064 128.064 0 0 0-128-127.936H128z m-64 127.936c0-35.328 38.208-64 85.312-64H320V576H64v-576.064zM256 832H115.2c-28.288 0-51.2-28.736-51.2-64.064v-128h256V768a64 64 0 0 1-64 64z m320 0H435.2c-28.288 0-51.2-28.736-51.2-64.064v-128h256V768a64 64 0 0 1-64 64z m320 0h-128a64 64 0 0 1-64-64.064v-128h256V768a64 64 0 0 1-64 64z m63.936-256h-576v-320h576V576z m0-320.128h-576v-319.936h518.272c31.808 0 57.6 28.672 57.6 64v255.936H960zM640 576h64v-640h-64z"  horiz-adv-x="1024" />

    
    <glyph glyph-name="zidingyi" unicode="&#59095;" d="M0.00064 822.720046A73.151954 73.151954 0 0 0 73.280594 896h328.895795a73.151954 73.151954 0 0 0 73.279954-73.279954v-328.895795a73.151954 73.151954 0 0 0-73.279954-73.279954h-328.959795A73.151954 73.151954 0 0 0 0.00064 493.824251v328.959795z m73.151954-36.351977v-256.12784c0-20.223987 16.31999-36.479977 36.479977-36.479978h256.12784a36.479977 36.479977 0 0 1 36.479978 36.479978V786.368069a36.479977 36.479977 0 0 1-36.479978 36.479977H109.632571a36.479977 36.479977 0 0 1-36.479977-36.479977zM0.00064 274.176389a73.151954 73.151954 0 0 0 73.279954 73.279954h328.895795a73.151954 73.151954 0 0 0 73.279954-73.279954v-328.959795A73.151954 73.151954 0 0 0 402.176389-127.99936h-328.959795A73.151954 73.151954 0 0 0 0.00064-54.719406V274.176389z m548.543657 0.128H1024v-73.151955H548.544297V274.304389z m0-255.99984H1024v-73.151955H548.544297v73.151955z m0 804.543497H1024v-73.151955H548.544297V822.848046z m0-255.99984H1024v-73.151955H548.544297V566.848206z m-475.391703-329.087795v-256.12784c0-20.159987 16.31999-36.479977 36.479977-36.479977h256.12784a36.479977 36.479977 0 0 1 36.479978 36.479977v256.12784a36.479977 36.479977 0 0 1-36.479978 36.479978H109.632571a36.479977 36.479977 0 0 1-36.479977-36.479978z"  horiz-adv-x="1024" />

    
    <glyph glyph-name="XXXzhuanyong" unicode="&#59096;" d="M128-128a128 128 0 0 0-128 128.064V767.936A128 128 0 0 0 128 896h767.936a128 128 0 0 0 128-128.064v-768a128.064 128.064 0 0 0-128-127.936H128z m-64 127.936c0-35.328 38.208-64 85.312-64H320V576H64v-576.064zM256 832H115.2c-28.288 0-51.2-28.736-51.2-64.064v-128h256V768a64 64 0 0 1-64 64z m320 0H435.2c-28.288 0-51.2-28.736-51.2-64.064v-128h256V768a64 64 0 0 1-64 64z m320 0h-128a64 64 0 0 1-64-64.064v-128h256V768a64 64 0 0 1-64 64z m63.936-256h-576v-320h576V576z m0-320.128h-576v-319.936h518.272c31.808 0 57.6 28.672 57.6 64v255.936H960zM640 576h64v-640h-64zM107.328 50.368L288 322.304l180.672-271.936zM704 203.008L884.992 384 704 564.992 523.008 384z"  horiz-adv-x="1024" />

    
    <glyph glyph-name="jibenliuchengtu" unicode="&#59097;" d="M966.016 264.256h-288.768a57.6 57.6 0 0 1-57.6-57.6v-264.512a57.6 57.6 0 0 1 57.6-57.6h288.768a57.6 57.6 0 0 1 57.6 57.6V206.72a57.6 57.6 0 0 1-57.6 57.6z m0-322.112h-288.768V206.72h288.768v-264.512zM770.112 669.504l2.688-306.752-72.064 65.28a28.8 28.8 0 0 1-40.96-2.304 29.568 29.568 0 0 1 2.24-41.408l124.352-112.64c11.904-10.816 30.272-9.792 40.896 2.368l111.04 125.632a29.568 29.568 0 0 1-23.296 48.96 28.928 28.928 0 0 1-19.968-9.728l-64.384-72.96-2.88 336.832a29.184 29.184 0 0 1-30.592 27.712H404.352V837.76a57.6 57.6 0 0 1-57.6 57.6H57.92a57.6 57.6 0 0 1-57.6-57.472v-264.512a57.6 57.6 0 0 1 57.6-57.6h288.768a57.6 57.6 0 0 1 57.6 57.6V669.44h365.76v0.064zM346.752 573.44H57.984V837.824h288.768V573.44z"  horiz-adv-x="1024" />

    


  </font>
</defs>
</svg>
