<?xml version="1.0" encoding="UTF-8"?>
<svg width="74px" height="74px" viewBox="0 0 74 74" version="1.1" xmlns="http://www.w3.org/2000/svg" xmlns:xlink="http://www.w3.org/1999/xlink">
    <!-- Generator: Sketch 53.2 (72643) - https://sketchapp.com -->
    <title>搜索不到配图</title>
    <desc>Created with Sketch.</desc>
    <g id="Page-1" stroke="none" stroke-width="1" fill="none" fill-rule="evenodd">
        <g id="分组-16">
            <g id="分组-13" transform="translate(0.000000, 4.000000)">
                <text id="…" font-family="PingFangSC-Heavy, PingFang SC" font-size="20" font-weight="600" fill="#95B2C8">
                    <tspan x="54" y="21">…</tspan>
                </text>
                <g id="搜索，放大镜" transform="translate(0.000000, 6.000000)" fill-rule="nonzero">
                    <g id="分组">
                        <rect id="矩形" fill="#000000" opacity="0" x="0" y="0" width="64" height="64"></rect>
                        <polygon id="路径" fill="#FFFFFF" points="38.6908064 44.2987653 43.157666 39.8319058 59.9016157 56.5758555 55.4347562 61.0431666"></polygon>
                        <path d="M55.4338531,62.6182178 L37.1139491,44.2937981 L43.1603754,38.2473717 L61.4802794,56.5763071 L55.4338531,62.6182178 Z M40.2703732,44.2937981 L55.4338531,59.4617936 L58.3238552,56.5717914 L43.1558597,41.4037959 L40.2703732,44.2937981 Z" id="形状" fill="#95B2C8"></path>
                        <path d="M36.7874691,37.2733508 L38.3647781,35.6960418 L42.8284767,40.1597404 L41.2511677,41.7370493 L36.7874691,37.2733508 Z M34.5535878,39.5054258 L36.1308967,37.9281168 L40.5945954,42.3918154 L39.0172864,43.9691244 L34.5535878,39.5054258 Z" id="形状" fill="#95B2C8"></path>
                        <path d="M1.86043887,22.5329853 C1.86043877,29.9088951 5.79543978,36.724517 12.1831651,40.412472 C18.5708904,44.1004269 26.4408926,44.1004269 32.8286179,40.412472 C39.2163432,36.724517 43.1513442,29.9088951 43.1513441,22.5329853 C43.1513441,11.1308166 33.9080601,1.88753263 22.5058915,1.88753263 C11.1037229,1.88753263 1.86043887,11.1308166 1.86043887,22.5329853 Z" id="路径" fill="#F2F8FB"></path>
                        <path d="M22.5058915,44.2983137 C13.7009979,44.3056207 5.7590275,39.0073039 2.38447632,30.8747391 C-0.990074872,22.7421744 0.867613159,13.3775575 7.09103028,7.14897145 C13.3144474,0.920385374 22.6775188,-0.945076702 30.8128823,2.42272151 C38.9482459,5.79051972 44.2531544,13.7280886 44.2531574,22.5329853 C44.2407343,34.5414456 34.5143374,44.2759209 22.5058915,44.2983137 L22.5058915,44.2983137 Z M22.5058915,3.00289281 C11.7197193,3.00289281 2.97579906,11.746813 2.97579906,22.5329853 C2.97579906,33.3191575 11.7197193,42.0630777 22.5058915,42.0630777 C33.2920637,42.0630777 42.0359839,33.3191575 42.0359839,22.5329853 C42.0235419,11.7519709 33.2869059,3.01533484 22.5058915,3.00289281 Z" id="形状" fill="#95B2C8"></path>
                        <path d="M6.32187963,22.5329852 C6.3215203,28.3152153 9.40609694,33.65837 14.4135952,36.5495888 C19.4210935,39.4408076 25.5906895,39.4408076 30.5981877,36.5495888 C35.605686,33.65837 38.6902626,28.3152153 38.6899033,22.5329852 C38.6902626,16.7507552 35.605686,11.4076005 30.5981877,8.51638172 C25.5906895,5.62516295 19.4210935,5.62516295 14.4135952,8.51638172 C9.40609694,11.4076005 6.3215203,16.7507552 6.32187963,22.5329852 Z" id="路径" fill="#FFFFFF"></path>
                        <path d="M22.5058915,39.8323573 C15.5085378,39.8323571 9.20027345,35.6170117 6.52292412,29.152125 C3.8455748,22.6872383 5.32646345,15.2461158 10.2749855,10.2988854 C15.2235076,5.35165496 22.6650165,3.87270892 29.129204,6.55174587 C35.5933915,9.23078282 39.80709,15.5401474 39.8052635,22.5375009 C39.7928198,32.0857899 32.0541834,39.8224063 22.5058915,39.8323573 L22.5058915,39.8323573 Z M22.5058915,7.46433356 C14.1837055,7.46183999 7.43521929,14.2062831 7.43272548,22.5284691 C7.43023167,30.8506551 14.1746746,37.5991415 22.4968606,37.6016356 C30.8190466,37.6041296 37.5675332,30.8596869 37.5700275,22.5375009 C37.5625628,14.220171 30.8232188,7.47880681 22.5058915,7.46884925 L22.5058915,7.46433356 Z" id="形状" fill="#95B2C8"></path>
                        <path d="M12.1921964,20.008749 L10.0246948,19.4804205 C11.3969101,13.9641502 16.218982,9.99680849 21.8962817,9.7131165 L22.0001411,11.9438369 C17.3107258,12.17686 13.3268726,15.4527172 12.1921964,20.008749 Z M10.0337261,25.5900656 C9.79056668,24.5907606 9.66777302,23.5659643 9.66795997,22.5375009 L11.8986806,22.5375009 C11.8954449,23.3876107 11.9939845,24.2350515 12.1921964,25.0617371 L10.0337261,25.5900656 Z" id="形状" fill="#95B2C8"></path>
                    </g>
                </g>
            </g>
            <g id="分组-14" transform="translate(47.000000, 0.000000)" fill="#95B2C8">
                <polygon id="矩形" transform="translate(9.542778, 14.042778) rotate(-315.000000) translate(-9.542778, -14.042778) " points="10.2801341 12.598316 10.9872409 15.4872409 8.09831595 14.7801341"></polygon>
                <rect id="矩形" x="0" y="0" width="24" height="14" rx="7"></rect>
            </g>
            <text id="oops！" font-family="PingFangSC-Bold, PingFang SC" font-size="6" font-weight="bold" fill="#FFFFFF">
                <tspan x="51" y="9">oops！</tspan>
            </text>
        </g>
    </g>
</svg>