<?xml version="1.0" encoding="UTF-8"?>
<svg width="71px" height="80px" viewBox="0 0 71 80" version="1.1" xmlns="http://www.w3.org/2000/svg" xmlns:xlink="http://www.w3.org/1999/xlink">
    <!-- Generator: Sketch 59.1 (86144) - https://sketch.com -->
    <title>线上资源</title>
    <desc>Created with Sketch.</desc>
    <g id="页面-1" stroke="none" stroke-width="1" fill="none" fill-rule="evenodd">
        <g id="导入文件" transform="translate(-434.000000, -344.000000)" fill="#1890FF" fill-rule="nonzero">
            <g id="线上资源" transform="translate(434.000000, 344.000000)">
                <path d="M61.2642877,51.401634 C60.0565933,43.292456 52.9269585,37.0001082 44.4730973,37.0001082 C39.1576974,36.9811593 34.1446934,39.4526085 30.9474491,43.6684652 C26.5182577,43.4954898 22.2089954,45.1201312 19.0118511,48.1683227 C15.8147068,51.2165142 14.0052138,55.4255595 14,59.8263443 C14,68.7427589 21.3070811,76 30.3330081,76 L56.8599108,76 C64.6569557,76 71,70.3414555 71,63.3865995 C70.9973515,57.8384913 67.0140786,53.0608076 61.2642877,51.401634 Z M56.8572623,70.7437591 L30.2906328,70.7437591 C24.2219898,70.7365148 19.3042022,65.85404 19.2969055,59.8289737 C19.3001138,56.6603117 20.6888098,53.6491224 23.1028315,51.5763662 C25.5168532,49.50361 28.7183687,48.5734968 31.877056,49.0272541 L33.6011988,49.2770504 L34.5122665,47.8019373 C36.6251996,44.3494188 40.4040361,42.2466302 44.4730973,42.2590329 C50.7790633,42.2590329 56.0150544,47.3496744 56.1448285,53.6024712 L56.1925007,55.824344 L58.4066072,56.1503939 C62.6335378,56.7735701 65.7004461,59.818456 65.7004461,63.3892289 C65.7004461,67.443818 61.7330638,70.7437591 56.8572623,70.7437591 L56.8572623,70.7437591 Z" id="形状"></path>
                <path d="M12.9016923,74.6666663 L8.09461538,74.6666663 C6.51492308,74.6666663 5.23076923,73.285333 5.23076923,71.589333 L5.23076923,8.41066663 C5.23076923,6.71466664 6.51492308,5.33333331 8.09461538,5.33333331 L59.9027692,5.33333331 C61.4850769,5.33333331 62.7692308,6.71466664 62.7692308,8.41066663 L62.7692308,42.6559998 C62.7692308,44.1287591 63.9401783,45.3226665 65.3846154,45.3226665 C66.8290524,45.3226665 68,44.1287591 68,42.6559998 L68,8.41066663 C68,3.77333332 64.3672308,0 59.9027692,0 L8.09461538,0 C3.63276923,0 0,3.77333332 0,8.41066663 L0,71.589333 C0,76.2266663 3.63276923,80 8.09461538,80 L12.8990769,80 C14.343514,80 15.515047,78.8074257 15.5157692,77.3346663 C15.5164914,75.861907 14.3461293,74.6674027 12.9016923,74.6666663 Z" id="路径"></path>
                <path d="M47,15.7142857 C47,14.2152271 45.8290524,13 44.3846154,13 L15.6153846,13 C14.1709476,13 13,14.2152271 13,15.7142857 C13,17.2133443 14.1709476,18.4285714 15.6153846,18.4285714 L44.3846154,18.4285714 C45.8290524,18.4285714 47,17.2133443 47,15.7142857 Z M15.6153846,26.5714286 C14.1709476,26.5714286 13,27.7866557 13,29.2857143 C13,30.7847729 14.1709476,32 15.6153846,32 L31.3076923,32 C32.7521293,32 33.9230769,30.7847729 33.9230769,29.2857143 C33.9230769,27.7866557 32.7521293,26.5714286 31.3076923,26.5714286 L15.6153846,26.5714286 Z" id="形状"></path>
            </g>
        </g>
    </g>
</svg>