<?xml version="1.0" encoding="UTF-8"?>
<svg width="80px" height="69px" viewBox="0 0 80 69" version="1.1" xmlns="http://www.w3.org/2000/svg" xmlns:xlink="http://www.w3.org/1999/xlink">
    <!-- Generator: Sketch 59.1 (86144) - https://sketch.com -->
    <title>发送本地文件</title>
    <desc>Created with Sketch.</desc>
    <g id="页面-1" stroke="none" stroke-width="1" fill="none" fill-rule="evenodd">
        <g id="导入文件" transform="translate(-930.000000, -347.000000)" fill="#999999" fill-rule="nonzero">
            <g id="发送本地文件" transform="translate(930.000000, 347.000000)">
                <path d="M71.3874351,11.5007852 L37.1977469,11.5007852 C36.4294286,11.5194464 35.6863245,11.2243333 35.1377406,10.6826833 C34.5891566,10.1410334 34.2818186,9.3989817 34.2857491,8.62559447 C34.2807218,3.86750985 30.4516758,0.0101592854 25.7234699,1.10686205e-05 L8.56234015,1.10686205e-05 C6.28877841,-0.00365645462 4.10741724,0.90422009 2.50062234,2.52289255 C0.89382744,4.141565 -0.00602103307,6.33767466 3.03244507e-05,8.62559447 L3.03244507e-05,60.392829 C3.03244507e-05,65.1403439 3.8354866,69 8.56234015,69 L71.4377208,69 C76.1598456,68.9924178 79.9874204,65.1447751 80,60.392829 L80,20.1079563 C79.9798417,15.3394108 76.1260702,11.4880529 71.3874351,11.5007852 Z M74.2857186,60.3974293 C74.275696,61.974581 73.0049956,63.2492041 71.4377208,63.2542188 L8.56234015,63.2542188 C6.99299797,63.2542188 5.71938033,61.9766777 5.71424975,60.3974293 L5.71424975,8.62559447 C5.70821994,7.8627712 6.00601411,7.12927024 6.54118312,6.5889914 C7.07635213,6.04871255 7.80429006,5.74668763 8.56234015,5.75036982 L25.7234699,5.75036982 C27.2868973,5.75036982 28.5714678,7.04308948 28.5714678,8.62559447 C28.5714678,13.4145122 32.3931791,17.2511667 37.1977469,17.2511667 L71.3874351,17.2511667 C72.9920053,17.2511667 74.2857186,18.5438525 74.2857186,20.1079563 L74.2857186,60.3974293 L74.2857186,60.3974293 Z M41.6091721,25.7847329 C41.1974013,25.3707927 40.6414344,25.1347883 40.059459,25.1268892 C40.0366019,25.1268892 40.0137448,25.1130883 39.9954591,25.1130883 C39.9177448,25.1130883 39.8400306,25.1498908 39.7623164,25.1590914 C39.2459021,25.2025852 38.7600639,25.4234869 38.3863174,25.7847329 L38.3543174,25.816935 L37.6046037,26.5759854 L25.4537558,38.8035966 C24.5394708,39.7236577 24.5806137,41.1635532 25.4903272,42.0744136 L26.2446124,42.833464 C26.6665279,43.2798458 27.2498816,43.535576 27.8620319,43.5425073 C28.4741821,43.5494385 29.0631061,43.3069818 29.4948956,42.8702664 L37.1474612,35.1693555 L37.1474612,53.4831705 C37.1474612,54.7344536 38.1897461,55.7787228 39.4697452,55.7787228 L40.5348872,55.7787228 C41.1477127,55.792381 41.7400213,55.5562724 42.177317,55.1240104 C42.6146127,54.6917484 42.8597881,54.1000131 42.8571712,53.4831705 L42.8571712,35.1693555 L50.5143082,42.8748667 C51.4285932,43.7949278 52.8594493,43.753525 53.7645914,42.8426646 L54.5188766,42.0836142 C54.9618471,41.6584075 55.2151415,41.0710198 55.2212783,40.4550052 C55.227195,39.8389905 54.985442,39.2466982 54.5508765,38.8127972 L41.6091721,25.7847329 L41.6091721,25.7847329 Z" id="形状"></path>
            </g>
        </g>
    </g>
</svg>